<svg xmlns="http://www.w3.org/2000/svg" width="210.07" height="35" viewBox="0 0 210.07 35"><rect class="svg__rect" x="0" y="0" width="108.05" height="35" fill="#31C4F3"/><rect class="svg__rect" x="106.05" y="0" width="104.02" height="35" fill="#389AD5"/><path class="svg__text" d="M17.33 22L14.22 22L14.22 13.47L17.14 13.47Q18.59 13.47 19.34 14.05Q20.10 14.63 20.10 15.78L20.10 15.78Q20.10 16.36 19.78 16.83Q19.47 17.30 18.86 17.56L18.86 17.56Q19.55 17.75 19.93 18.26Q20.31 18.78 20.31 19.51L20.31 19.51Q20.31 20.71 19.53 21.36Q18.76 22 17.33 22L17.33 22ZM15.70 18.15L15.70 20.82L17.35 20.82Q18.04 20.82 18.44 20.47Q18.83 20.13 18.83 19.51L18.83 19.51Q18.83 18.18 17.47 18.15L17.47 18.15L15.70 18.15ZM15.70 14.66L15.70 17.06L17.15 17.06Q17.84 17.06 18.23 16.75Q18.62 16.43 18.62 15.86L18.62 15.86Q18.62 15.23 18.26 14.95Q17.90 14.66 17.14 14.66L17.14 14.66L15.70 14.66ZM24.64 19.16L24.64 19.16L24.64 13.47L26.12 13.47L26.12 19.18Q26.12 20.03 26.55 20.48Q26.98 20.93 27.83 20.93L27.83 20.93Q29.54 20.93 29.54 19.13L29.54 19.13L29.54 13.47L31.02 13.47L31.02 19.17Q31.02 20.53 30.15 21.32Q29.28 22.12 27.83 22.12L27.83 22.12Q26.36 22.12 25.50 21.33Q24.64 20.55 24.64 19.16ZM37.15 22L35.67 22L35.67 13.47L37.15 13.47L37.15 22ZM47.32 22L41.96 22L41.96 13.47L43.44 13.47L43.44 20.82L47.32 20.82L47.32 22ZM53.12 14.66L50.49 14.66L50.49 13.47L57.25 13.47L57.25 14.66L54.59 14.66L54.59 22L53.12 22L53.12 14.66ZM68.47 22L66.99 22L66.99 13.47L72.41 13.47L72.41 14.66L68.47 14.66L68.47 17.20L71.90 17.20L71.90 18.38L68.47 18.38L68.47 22ZM76.30 18.00L76.30 18.00L76.30 17.52Q76.30 16.28 76.74 15.32Q77.18 14.37 77.99 13.86Q78.79 13.35 79.84 13.35Q80.88 13.35 81.68 13.85Q82.49 14.35 82.93 15.29Q83.37 16.23 83.38 17.48L83.38 17.48L83.38 17.96Q83.38 19.21 82.94 20.16Q82.51 21.10 81.70 21.61Q80.90 22.12 79.85 22.12L79.85 22.12Q78.81 22.12 78.00 21.61Q77.19 21.10 76.75 20.17Q76.30 19.23 76.30 18.00ZM77.78 17.46L77.78 17.96Q77.78 19.36 78.33 20.13Q78.88 20.90 79.85 20.90L79.85 20.90Q80.83 20.90 81.36 20.15Q81.89 19.40 81.89 17.96L81.89 17.96L81.89 17.51Q81.89 16.09 81.36 15.34Q80.82 14.58 79.84 14.58L79.84 14.58Q78.88 14.58 78.33 15.33Q77.79 16.09 77.78 17.46L77.78 17.46ZM89.32 22L87.84 22L87.84 13.47L90.84 13.47Q92.32 13.47 93.12 14.13Q93.92 14.79 93.92 16.05L93.92 16.05Q93.92 16.90 93.51 17.48Q93.10 18.06 92.36 18.37L92.36 18.37L94.27 21.92L94.27 22L92.69 22L90.97 18.71L89.32 18.71L89.32 22ZM89.32 14.66L89.32 17.52L90.85 17.52Q91.60 17.52 92.02 17.15Q92.44 16.77 92.44 16.11L92.44 16.11Q92.44 15.43 92.05 15.05Q91.66 14.68 90.89 14.66L90.89 14.66L89.32 14.66Z" fill="#FFFFFF"/><path class="svg__text" d="M122.82 22L119.23 13.60L121.80 13.60L124.08 19.07L126.41 13.60L128.76 13.60L125.16 22L122.82 22ZM132.33 21.24L132.33 21.24L133.11 19.49Q133.67 19.86 134.41 20.09Q135.16 20.32 135.88 20.32L135.88 20.32Q137.24 20.32 137.25 19.64L137.25 19.64Q137.25 19.28 136.86 19.11Q136.47 18.93 135.60 18.74L135.60 18.74Q134.65 18.53 134.02 18.30Q133.38 18.06 132.93 17.55Q132.47 17.03 132.47 16.16L132.47 16.16Q132.47 15.39 132.89 14.77Q133.31 14.15 134.15 13.79Q134.98 13.43 136.19 13.43L136.19 13.43Q137.01 13.43 137.82 13.62Q138.62 13.80 139.24 14.17L139.24 14.17L138.51 15.93Q137.31 15.28 136.18 15.28L136.18 15.28Q135.47 15.28 135.14 15.49Q134.82 15.70 134.82 16.04L134.82 16.04Q134.82 16.37 135.21 16.54Q135.59 16.71 136.44 16.89L136.44 16.89Q137.40 17.10 138.03 17.33Q138.66 17.56 139.12 18.07Q139.59 18.58 139.59 19.46L139.59 19.46Q139.59 20.21 139.17 20.83Q138.75 21.44 137.91 21.80Q137.07 22.17 135.86 22.17L135.86 22.17Q134.85 22.17 133.88 21.92Q132.92 21.67 132.33 21.24ZM150.71 17.80L150.71 17.80Q150.71 16.54 151.30 15.54Q151.90 14.55 152.95 13.99Q154.01 13.43 155.32 13.43L155.32 13.43Q156.48 13.43 157.40 13.84Q158.32 14.25 158.94 15.02L158.94 15.02L157.43 16.39Q156.61 15.40 155.45 15.40L155.45 15.40Q154.76 15.40 154.23 15.70Q153.69 16 153.40 16.54Q153.10 17.09 153.10 17.80L153.10 17.80Q153.10 18.51 153.40 19.05Q153.69 19.60 154.23 19.90Q154.76 20.20 155.45 20.20L155.45 20.20Q156.61 20.20 157.43 19.22L157.43 19.22L158.94 20.58Q158.33 21.35 157.40 21.76Q156.48 22.17 155.32 22.17L155.32 22.17Q154.01 22.17 152.95 21.61Q151.90 21.05 151.30 20.05Q150.71 19.06 150.71 17.80ZM163.05 17.80L163.05 17.80Q163.05 16.55 163.65 15.55Q164.25 14.56 165.32 14.00Q166.38 13.43 167.71 13.43L167.71 13.43Q169.04 13.43 170.10 14.00Q171.17 14.56 171.77 15.55Q172.38 16.55 172.38 17.80L172.38 17.80Q172.38 19.05 171.77 20.04Q171.17 21.04 170.11 21.60Q169.05 22.17 167.71 22.17L167.71 22.17Q166.38 22.17 165.32 21.60Q164.25 21.04 163.65 20.04Q163.05 19.05 163.05 17.80ZM165.44 17.80L165.44 17.80Q165.44 18.51 165.74 19.05Q166.05 19.60 166.56 19.90Q167.08 20.20 167.71 20.20L167.71 20.20Q168.35 20.20 168.86 19.90Q169.38 19.60 169.68 19.05Q169.98 18.51 169.98 17.80L169.98 17.80Q169.98 17.09 169.68 16.54Q169.38 16 168.86 15.70Q168.35 15.40 167.71 15.40L167.71 15.40Q167.07 15.40 166.56 15.70Q166.05 16 165.74 16.54Q165.44 17.09 165.44 17.80ZM181.08 22L177.11 22L177.11 13.60L181.08 13.60Q182.46 13.60 183.53 14.12Q184.60 14.63 185.19 15.58Q185.78 16.53 185.78 17.80L185.78 17.80Q185.78 19.07 185.19 20.02Q184.60 20.97 183.53 21.48Q182.46 22 181.08 22L181.08 22ZM179.49 15.50L179.49 20.10L180.99 20.10Q182.07 20.10 182.72 19.49Q183.37 18.88 183.37 17.80L183.37 17.80Q183.37 16.72 182.72 16.11Q182.07 15.50 180.99 15.50L180.99 15.50L179.49 15.50ZM197.25 22L190.50 22L190.50 13.60L197.10 13.60L197.10 15.44L192.86 15.44L192.86 16.85L196.59 16.85L196.59 18.63L192.86 18.63L192.86 20.17L197.25 20.17L197.25 22Z" fill="#FFFFFF" x="119.05"/></svg>